<mxfile host="app.diagrams.net" modified="2023-02-14T06:34:51.994Z" agent="5.0 (Windows NT 10.0; Win64; x64) AppleWebKit/537.36 (KHTML, like Gecko) Chrome/109.0.0.0 Safari/537.36" etag="ImN-XG8DYqJLpf87-NAq" version="20.8.20" type="github">
  <diagram name="第 1 页" id="bcXSO8O5BBiUJnzSj3ID">
    <mxGraphModel dx="1114" dy="576" grid="1" gridSize="10" guides="1" tooltips="1" connect="1" arrows="1" fold="1" page="1" pageScale="1" pageWidth="827" pageHeight="1169" math="0" shadow="0">
      <root>
        <mxCell id="0" />
        <mxCell id="1" parent="0" />
        <mxCell id="DhIqLarVkaUnHGVRzD86-1" value="initialize" style="rounded=1;whiteSpace=wrap;html=1;absoluteArcSize=1;arcSize=14;strokeWidth=2;" vertex="1" parent="1">
          <mxGeometry x="80" y="240" width="100" height="100" as="geometry" />
        </mxCell>
        <mxCell id="DhIqLarVkaUnHGVRzD86-2" value="stop" style="rounded=1;whiteSpace=wrap;html=1;absoluteArcSize=1;arcSize=14;strokeWidth=2;" vertex="1" parent="1">
          <mxGeometry x="314" y="240" width="100" height="100" as="geometry" />
        </mxCell>
        <mxCell id="DhIqLarVkaUnHGVRzD86-4" value="" style="endArrow=classic;html=1;rounded=0;" edge="1" parent="1">
          <mxGeometry width="50" height="50" relative="1" as="geometry">
            <mxPoint x="190" y="289.5" as="sourcePoint" />
            <mxPoint x="310" y="289.5" as="targetPoint" />
          </mxGeometry>
        </mxCell>
      </root>
    </mxGraphModel>
  </diagram>
</mxfile>
